<?xml version="1.0" standalone="no"?><!DOCTYPE svg PUBLIC "-//W3C//DTD SVG 1.1//EN" "http://www.w3.org/Graphics/SVG/1.1/DTD/svg11.dtd"><svg t="1533022573099" class="icon" style="" viewBox="0 0 1024 1024" version="1.1" xmlns="http://www.w3.org/2000/svg" p-id="8947" xmlns:xlink="http://www.w3.org/1999/xlink" width="200" height="200"><defs><style type="text/css"></style></defs><path d="M413.247 766.968h-199.226q-27.871-2.065-42.839-23.226t-18.065-46.968q3.097-25.806 18.065-42.323t42.839-18.581h199.226v-65.032l-199.226-1.032q-27.871-2.065-42.839-19.613t-18.065-44.387q3.097-25.806 18.065-42.323t42.839-18.581h148.645l-138.323-243.613q-10.323-12.387-19.613-31.484t-8.258-41.806q5.161-28.903 20.645-46.968t57.806-23.226q24.774 2.065 44.387 17.032t32 32.516l156.903 286.968 172.387-289.032q12.387-17.548 32-30.968t44.387-16.516q15.484 1.032 28.387 4.129t22.71 10.323 16.516 20.645 9.806 35.097q0 29.935-20.645 56.774l-160 260.129h151.742q26.839 2.065 42.323 18.581t17.548 42.323q-2.065 26.839-18.065 45.419t-42.839 20.645l-197.161 1.032v62.968h198.194q26.839 2.065 42.323 20.645t17.548 44.387q-2.065 26.839-17.548 44.903t-42.323 20.129l-198.194-1.032v109.419q-4.129 87.742-96 87.742-45.419 0-70.71-21.677t-27.355-66.065v-107.355z" p-id="8948" fill="#ffffff"></path></svg>