<?xml version="1.0" standalone="no"?><!DOCTYPE svg PUBLIC "-//W3C//DTD SVG 1.1//EN" "http://www.w3.org/Graphics/SVG/1.1/DTD/svg11.dtd"><svg t="1533126645127" class="icon" style="" viewBox="0 0 1024 1024" version="1.1" xmlns="http://www.w3.org/2000/svg" p-id="20681" xmlns:xlink="http://www.w3.org/1999/xlink" width="30" height="30"><defs><style type="text/css"></style></defs><path d="M993.28 174.08 512 174.08 30.72 174.08 0 174.08 0 204.8l0 46.08 0 527.36L0 819.2l0 30.72 30.72 0L512 849.92l481.28 0L1024 849.92 1024 819.2l0-46.08L1024 245.76 1024 204.8 1024 174.08 993.28 174.08zM512 250.88l373.76 0-204.8 194.56-51.2 46.08L512 614.4 389.12 496.64l-51.2-46.08-204.8-194.56L512 250.88zM61.44 266.24l235.52 230.4-235.52 235.52L61.44 266.24zM512 778.24 102.4 778.24l240.64-240.64 148.48 143.36c5.12 5.12 15.36 10.24 20.48 10.24 5.12 0 15.36-5.12 20.48-10.24l148.48-143.36 240.64 240.64L512 778.24zM962.56 732.16l-235.52-235.52 235.52-230.4L962.56 732.16z" p-id="20682" fill="#ffffff"></path></svg>