<?xml version="1.0" standalone="no"?><!DOCTYPE svg PUBLIC "-//W3C//DTD SVG 1.1//EN" "http://www.w3.org/Graphics/SVG/1.1/DTD/svg11.dtd"><svg t="1533131226245" class="icon" style="" viewBox="0 0 1024 1024" version="1.1" xmlns="http://www.w3.org/2000/svg" p-id="27321" xmlns:xlink="http://www.w3.org/1999/xlink" width="30" height="30"><defs><style type="text/css"></style></defs><path d="M512 992.256c-28.16 0-56.32-7.68-80.896-22.016C330.24 910.336 0 689.664 0 366.08v-16.896C0 179.2 139.264 33.792 303.616 31.744c42.496 0 132.096 9.216 208.384 76.288 53.248-47.104 120.832-72.704 202.752-75.776 73.728-3.584 148.992 25.088 207.36 80.896 64 60.416 101.888 148.48 101.888 236.032v16.896c0 325.632-330.24 544.768-431.616 604.16-24.064 14.336-52.224 22.016-80.384 22.016zM304.128 168.448c-89.088 1.024-167.936 85.504-167.936 180.736v16.896c0 251.392 279.04 436.224 364.544 486.4 7.168 4.096 15.36 4.096 21.504 0 85.504-50.176 364.544-233.984 364.544-486.912v-16.896c0-50.176-22.528-102.4-58.88-137.216-31.232-29.696-68.096-45.568-107.008-43.008-71.168 3.072-117.76 27.648-151.04 80.896L512 342.016 454.656 249.344c-45.568-72.704-120.32-80.896-150.528-80.896z" p-id="27322" fill="#ffffff"></path></svg>