<?xml version="1.0" standalone="no"?><!DOCTYPE svg PUBLIC "-//W3C//DTD SVG 1.1//EN" "http://www.w3.org/Graphics/SVG/1.1/DTD/svg11.dtd"><svg t="1533126605468" class="icon" style="" viewBox="0 0 1024 1024" version="1.1" xmlns="http://www.w3.org/2000/svg" p-id="19907" xmlns:xlink="http://www.w3.org/1999/xlink" width="30" height="30"><defs><style type="text/css"></style></defs><path d="M853.333333 128.677249c73.142857 0 132.289242 59.146384 132.289242 132.289241v644.289242H38.377425V260.96649c0-73.142857 59.146384-132.289242 132.289242-132.289241H853.333333m0-38.377425H170.666667C76.303351 90.299824 0 166.603175 0 260.96649V943.633157h1024V260.96649c0-94.363316-76.75485-170.666667-170.666667-170.666666z" p-id="19908" fill="#ffffff"></path><path d="M993.29806 354.426808H35.216931v43.343915h391.901235v159.830688s-1.354497 58.243386 87.13933 58.243386c0 0 87.13933 5.869489 87.139329-58.243386V397.770723H993.29806v-43.343915z m-479.040564 217.622575c-23.929453 0-43.343915-19.414462-43.343916-43.343916s19.414462-43.343915 43.343916-43.343915 43.343915 19.414462 43.343915 43.343915-19.414462 43.343915-43.343915 43.343916z" p-id="19909" fill="#ffffff"></path></svg>