<?xml version="1.0" standalone="no"?><!DOCTYPE svg PUBLIC "-//W3C//DTD SVG 1.1//EN" "http://www.w3.org/Graphics/SVG/1.1/DTD/svg11.dtd"><svg t="1533125971743" class="icon" style="" viewBox="0 0 1024 1024" version="1.1" xmlns="http://www.w3.org/2000/svg" p-id="1053" xmlns:xlink="http://www.w3.org/1999/xlink" width="40" height="40"><defs><style type="text/css"></style></defs><path d="M877.714286 365.714286l73.142857 0L950.857143 109.714286c0-20.214857-16.356571-36.571429-36.571429-36.571429L658.285714 73.142857l0 73.142857 219.428571 0L877.714286 365.714286z" p-id="1054" fill="#FFD700"></path><path d="M146.285714 146.285714l219.428571 0L365.714286 73.142857 109.714286 73.142857c-20.214857 0-36.571429 16.356571-36.571429 36.571429l0 256 73.142857 0L146.285714 146.285714z" p-id="1055" fill="#FFD700"></path><path d="M146.285714 658.285714 73.142857 658.285714l0 256c0 20.214857 16.356571 36.571429 36.571429 36.571429l256 0 0-73.142857L146.285714 877.714286 146.285714 658.285714z" p-id="1056" fill="#FFD700"></path><path d="M877.714286 877.714286 658.285714 877.714286l0 73.142857 256 0c20.214857 0 36.571429-16.356571 36.571429-36.571429L950.857143 658.285714l-73.142857 0L877.714286 877.714286z" p-id="1057" fill="#FFD700"></path><path d="M950.857143 475.428571 73.142857 475.428571c-20.214857 0-36.571429 16.356571-36.571429 36.571429s16.356571 36.571429 36.571429 36.571429l877.714286 0c20.214857 0 36.571429-16.356571 36.571429-36.571429S971.072 475.428571 950.857143 475.428571z" p-id="1058" fill="#FFD700"></path></svg>