<?xml version="1.0" standalone="no"?><!DOCTYPE svg PUBLIC "-//W3C//DTD SVG 1.1//EN" "http://www.w3.org/Graphics/SVG/1.1/DTD/svg11.dtd"><svg t="1533371111113" class="icon" style="" viewBox="0 0 1024 1024" version="1.1" xmlns="http://www.w3.org/2000/svg" p-id="1694" xmlns:xlink="http://www.w3.org/1999/xlink" width="22" height="22"><defs><style type="text/css"></style></defs><path d="M955.894368 904.307967l-129.891326-107.72242c26.882254-33.67803 48.734958-71.095221 65.138556-111.682615 22.150486-54.806233 33.381271-112.992447 33.381271-172.944887 0-59.95244-11.231809-118.139677-33.381271-172.944887-21.423939-53.007261-52.107775-100.627838-91.201142-141.53962-39.187511-41.010019-84.857667-73.223698-135.743614-95.747691-52.798507-23.370267-108.87978-35.220153-166.69044-35.220153s-113.892957 11.849886-166.692486 35.220153c-50.885947 22.523993-96.557126 54.738695-135.743614 95.747691-39.09439 40.911782-69.778226 88.532359-91.203188 141.53962-22.150486 54.80521-33.381271 112.992447-33.381271 172.944887 0 59.95244 11.231809 118.140701 33.381271 172.944887 21.424962 53.007261 52.108798 100.626815 91.203188 141.538597 39.186488 41.008996 84.85869 73.223698 135.743614 95.746668 52.79953 23.370267 108.881826 35.220153 166.692486 35.220153s113.891933-11.849886 166.69044-35.220153c44.316322-19.615757 84.672448-46.587038 120.239502-80.311117l132.264373 109.689215c5.730515 4.753257 12.674671 7.070023 19.579941 7.070023 8.820899 0 17.576307-3.78214 23.64656-11.103896C970.75175 934.484244 968.945615 915.130454 955.894368 904.307967zM497.507426 896.011001c-201.604624 0-365.622188-172.284855-365.622188-384.052956s164.017564-384.053979 365.622188-384.053979c201.602577 0 365.618095 172.285878 365.618095 384.053979S699.110003 896.011001 497.507426 896.011001z" p-id="1695" fill="#797979"></path></svg>