<?xml version="1.0" standalone="no"?><!DOCTYPE svg PUBLIC "-//W3C//DTD SVG 1.1//EN" "http://www.w3.org/Graphics/SVG/1.1/DTD/svg11.dtd"><svg t="1533374903713" class="icon" style="" viewBox="0 0 1024 1024" version="1.1" xmlns="http://www.w3.org/2000/svg" p-id="13486" xmlns:xlink="http://www.w3.org/1999/xlink" width="22" height="22"><defs><style type="text/css"></style></defs><path d="M770.275 549.847L441.571 878.541c-20.91 20.91-54.804 20.91-75.704 0-20.9-20.9-20.9-54.805 0-75.705L656.714 512 365.877 221.164c-20.9-20.91-20.9-54.805 0-75.705 20.9-20.91 54.794-20.91 75.704 0l328.704 328.694c10.445 10.455 15.668 24.146 15.668 37.847s-5.233 27.402-15.678 37.847z" p-id="13487" fill="#c0c0c0"></path><path d="M276.724 509.562m-57.295 0a57.295 57.295 0 1 0 114.59 0 57.295 57.295 0 1 0-114.59 0Z" p-id="13488" fill="#c0c0c0"></path></svg>