<?xml version="1.0" standalone="no"?><!DOCTYPE svg PUBLIC "-//W3C//DTD SVG 1.1//EN" "http://www.w3.org/Graphics/SVG/1.1/DTD/svg11.dtd"><svg t="1533131065931" class="icon" style="" viewBox="0 0 1024 1024" version="1.1" xmlns="http://www.w3.org/2000/svg" p-id="21416" xmlns:xlink="http://www.w3.org/1999/xlink" width="30" height="30"><defs><style type="text/css"></style></defs><path d="M271.980414 768.212517l255.787482 0 0-51.157751L271.980414 717.054766 271.980414 768.212517zM271.980414 589.161025l460.418487 0 0-51.157751L271.980414 538.003274 271.980414 589.161025zM578.925647 0.848798 425.452394 0.848798l0 51.157751 153.473254 0L578.925647 0.848798zM271.980414 410.109533l460.418487 0 0-51.157751L271.980414 358.951782 271.980414 410.109533zM885.87088 0.848798 732.397627 0.848798c0 0-76.73599-4.608313-76.73599 51.157751 0 35.124849-21.540709 47.389051-41.797156 51.157751L398.315967 103.1643c-22.079641-2.740526-49.599563-13.67205-49.599563-51.157751 0-62.768355-76.73599-51.160299-76.73599-51.160299l-0.002548 0.002548L118.507161 0.848798C90.2521 0.848798 67.349409 23.751488 67.349409 52.006549l0 920.836973C67.349409 1001.096035 90.2521 1023.999999 118.507161 1023.999999l511.576238 0 51.157751 0 25.578239 0 230.209243-230.209243 0-25.578239 0-51.157751L937.028631 52.006549C937.028631 23.751488 914.124667 0.848798 885.87088 0.848798zM681.239876 972.842248 681.239876 793.790756c0-14.126893 11.451345-25.578239 25.578239-25.578239l179.051492 0L681.239876 972.842248zM885.87088 717.054766 681.239876 717.054766c-28.253787 0-51.157751 22.902691-51.157751 51.157751l0 204.629731L144.085399 972.842248c-14.126893 0-25.578239-11.451345-25.578239-25.578239L118.507161 77.584787c0-14.126893 11.451345-25.578239 25.578239-25.578239l122.678971 0c16.169228 5.519273 30.470669 19.396449 30.794283 51.157751 0.568235 55.912582 76.73599 51.157751 76.73599 51.157751l255.787482 0c0 0 76.73599 0.226785 76.73599-58.570293 0-29.144362 19.128894-40.089901 38.285817-43.745209l115.186162 0c14.126893 0 25.578239 11.451345 25.578239 25.578239L885.868332 717.054766z" p-id="21417" fill="#ffffff"></path></svg>