<?xml version="1.0" standalone="no"?><!DOCTYPE svg PUBLIC "-//W3C//DTD SVG 1.1//EN" "http://www.w3.org/Graphics/SVG/1.1/DTD/svg11.dtd"><svg t="1533132691240" class="icon" style="" viewBox="0 0 1024 1024" version="1.1" xmlns="http://www.w3.org/2000/svg" p-id="29579" xmlns:xlink="http://www.w3.org/1999/xlink" width="30" height="30"><defs><style type="text/css"></style></defs><path d="M575.620018 402.00891c-61.170634-34.845623-139.388202-14.164604-174.694735 46.195112-35.323931 60.35767-14.359621 137.542586 46.812037 172.390255 61.172681 34.860972 139.387178 14.163581 174.709062-46.192042C657.757009 514.041496 636.791676 436.871929 575.620018 402.00891zM594.491581 558.479591c-26.411592 45.115524-84.896961 60.57154-130.631412 34.516118-45.733428-26.048259-61.407028-83.743286-34.995436-128.857786 26.395218-45.12985 84.882634-60.58996 130.633458-34.534538C605.230596 455.654714 620.903173 513.350764 594.491581 558.479591zM887.803621 437.646572c0.097218 0.020466 0.192389 0.041956 0.289608 0.061398l-6.363179-26.699082-1.900357-6.602372c-34.912545-10.390651-61.324137-31.390941-77.550344-59.113329-16.225185-27.722388-21.92114-67.89432-13.087599-96.14985l-13.938001-12.534478c-3.605255-3.368724-7.276005-6.67298-11.013273-9.903557l-1.057119-0.950651c-0.004093 0.011256-0.007163 0.022513-0.011257 0.034792-36.971521-31.728632-80.152719-56.597019-127.523504-72.561619 0.004093-0.005117 0.00921-0.00921 0.013304-0.014326l-0.537258-0.159636c-8.428295-2.827395-16.987579-5.375427-25.667618-7.628748l-0.415479-0.12382-0.827889-0.205685c-0.230253-0.059352-0.456413-0.12382-0.685643-0.182149l0 0.011256-5.230332-1.301645c-26.580444 24.632004-58.224415 36.694737-90.672737 36.694737-32.450369 0-70.567017-15.22168-90.956205-36.893258l-5.579294 1.656733c-9.466994 2.422166-18.788672 5.200442-27.956847 8.303106l-0.401152 0.118704c0.00307 0.00307 0.00614 0.007163 0.010233 0.011256-47.341108 16.07921-90.480348 41.055045-127.386375 72.887031l-0.00921-0.026606-0.673363 0.61296c-4.61223 3.997034-9.125195 8.101515-13.537872 12.30935l-6.140089 5.583159-4.845553 4.924149c8.334147 35.021631 3.103815 68.084655-13.122393 95.80602-16.224161 27.721365-48.6469 52.674687-77.868606 59.256592l-1.976085 8.41874c-2.216572 8.173147-4.16298 16.454764-5.830014 24.835641l-0.182156 0.776689c0.00921-0.002047 0.01842-0.004093 0.02763-0.00614-4.608137 23.428595-7.038588 47.623647-7.038588 72.381517 0 25.059745 2.491853 49.54337 7.210511 73.239048-0.002047 0-0.004093-0.001023-0.00614-0.001023l0.03377 0.143263c1.853283 9.28548 4.037108 18.454304 6.563755 27.482935l0.02763-0.016373 1.63838 5.691629c34.913568 10.389628 61.32516 31.388894 77.550344 59.110259 16.225185 27.725458 21.920117 67.896366 13.087599 96.15292l6.94137 6.349615c40.812147 40.047088 90.705485 71.092152 146.375623 89.858564l-0.013304 0.01535 0.509627 0.152473c7.655667 2.569522 15.420833 4.904707 23.285263 7.001461l2.762017 0.830925 6.745911 1.678222c26.580444-24.63098 58.221345-36.694737 90.673761-36.694737 32.450369 0 70.565993 15.220656 90.956205 36.895305l6.591385-1.969864c67.061026-17.33276 126.939172-52.139497 174.374427-99.172697l0.621172-0.571005 4.843507-4.925173c-8.333124-35.022655-3.102792-68.082608 13.123416-95.80602 16.225185-27.724435 48.644853-52.673663 77.869629-59.257615l1.281232-5.370311 0.085961 0.049119c8.984997-32.112372 13.801896-65.931618 13.801896-100.864222C895.091906 486.075561 892.572423 461.461977 887.803621 437.646572zM853.321906 593.877799c-30.951164 12.71458-59.831072 34.517141-78.902187 67.101257-19.265552 32.918737-23.899272 67.131957-19.089536 100.298334-40.519469 38.391379-90.336056 67.312058-145.805618 83.127256-26.559977-19.958564-59.981504-33.615609-97.98149-33.615609-38.444119 0-70.75429 13.106506-97.441162 33.725102-55.417371-15.734356-105.205304-44.548612-145.73603-82.817194 4.235638-32.659841-0.535211-68.006883-19.560276-100.516298-19.277832-32.937157-47.095504-54.022381-78.681144-66.5016-6.695767-26.719548-10.266228-54.651714-10.266228-83.408665 0-28.566616 3.520318-56.319703 10.1291-82.876546 30.86725-12.720719 59.627425-34.509978 78.669887-67.048045 19.227688-32.852222 23.907459-66.918086 19.160147-99.980086 40.507189-38.403658 90.310472-67.347874 145.773894-83.182514 26.584538 19.950378 60.049045 33.607422 98.032657 33.607422 38.436956 0 70.773733-13.139252 97.473909-33.769105 55.482865 15.741519 105.321966 44.598754 145.884416 82.920548-4.167074 32.522718 0.67541 67.641563 19.666704 100.089579 19.213361 32.828686 46.912325 53.884234 78.368 66.379826 6.767401 26.854625 10.374703 54.940286 10.374703 83.859943C863.390628 539.740808 859.888731 567.401798 853.321906 593.877799z" p-id="29580" fill="#ffffff"></path></svg>