<?xml version="1.0" standalone="no"?><!DOCTYPE svg PUBLIC "-//W3C//DTD SVG 1.1//EN" "http://www.w3.org/Graphics/SVG/1.1/DTD/svg11.dtd"><svg t="1533006808672" class="icon" style="" viewBox="0 0 1024 1024" version="1.1" xmlns="http://www.w3.org/2000/svg" p-id="4390" xmlns:xlink="http://www.w3.org/1999/xlink" width="200" height="200"><defs><style type="text/css"></style></defs><path d="M242.364727 762.130511c-46.23351 0-84.159436 37.564727-84.159436 84.159436 0 46.23351 37.564727 84.159436 84.159436 84.159436 46.23351 0 84.159436-37.564727 84.159435-84.159436 0-46.23351-37.925926-84.159436-84.159435-84.159436z m0 132.198942c-26.367549 0-48.039506-21.671958-48.039507-48.039506 0-26.367549 21.671958-48.039506 48.039507-48.039506 26.367549 0 48.039506 21.671958 48.039506 48.039506 0 26.367549-21.671958 48.039506-48.039506 48.039506zM623.791182 762.130511c-46.23351 0-84.159436 37.564727-84.159436 84.159436 0 46.23351 37.564727 84.159436 84.159436 84.159436 46.23351 0 84.159436-37.564727 84.159435-84.159436 0-46.23351-37.564727-84.159436-84.159435-84.159436z m0 132.198942c-26.367549 0-48.039506-21.671958-48.039507-48.039506 0-26.367549 21.671958-48.039506 48.039507-48.039506 26.367549 0 48.039506 21.671958 48.039506 48.039506 0 26.367549-21.310758 48.039506-48.039506 48.039506zM234.418342 371.312875h402.376014v36.119929H234.418342zM259.341093 486.53545h353.252911v36.119929H259.341093zM298.711817 591.644444h274.511463v36.11993h-274.511463z" fill="#d81e06" p-id="4391"></path><path d="M951.037743 98.607407c-1.083598 0-2.167196 0-3.611993 0.3612l-111.610582 10.835979-71.156261 141.951322 1.083597 0.722399H101.135802c-15.17037 0-28.534744 6.140388-37.203527 17.337566-8.668783 10.835979-11.197178 25.64515-7.585185 40.093122l97.523809 383.593651c6.862787 27.089947 34.313933 48.761905 62.487478 48.761904h428.743563c27.812346 0 55.624691-20.949559 63.209877-48.039506l105.831393-383.95485c3.973192-14.447972 1.444797-29.257143-6.862787-40.454321-2.167196-2.889594-4.695591-5.417989-7.585185-7.585185l59.236684-118.112169 92.105821-9.029983c10.11358 0 18.059965-7.946384 18.059964-18.059965 0-10.47478-8.307584-18.421164-18.059964-18.421164z m-171.569665 201.549207l-105.831394 383.95485c-3.250794 11.197178-16.615168 21.671958-28.173545 21.671958H216.358377c-11.558377 0-24.561552-10.11358-27.451146-21.310759l-97.523809-383.593651c-1.083598-3.611993-0.722399-7.223986 1.083597-9.029982 1.805996-2.167196 4.695591-3.250794 8.668783-3.250794h668.941094c3.973192 0 6.862787 1.083598 8.307584 3.250794 1.805996 1.444797 2.167196 4.695591 1.083598 8.307584z" fill="#d81e06" p-id="4392"></path></svg>