<?xml version="1.0" standalone="no"?><!DOCTYPE svg PUBLIC "-//W3C//DTD SVG 1.1//EN" "http://www.w3.org/Graphics/SVG/1.1/DTD/svg11.dtd"><svg t="1533131251164" class="icon" style="" viewBox="0 0 1024 1024" version="1.1" xmlns="http://www.w3.org/2000/svg" p-id="28857" xmlns:xlink="http://www.w3.org/1999/xlink" width="30" height="30"><defs><style type="text/css"></style></defs><path d="M100.28032 910.98112c2.00704 0 4.05504-0.32768 6.06208-1.05472l63.54944-22.59968a3407282.10432 3407282.10432 0 0 0 283.43296-100.78208 160.512 160.512 0 0 1 107.54048 0l143.58528 51.05664 139.84768 49.72544 63.55968 22.59968c1.9456 0.69632 3.9936 1.05472 6.05184 1.05472v9.00096c0 33.30048-25.12896 50.51392-56.13568 38.47168L563.24096 843.91936c-31.01696-12.06272-81.27488-12.06272-112.2816 0L156.42624 958.45376c-31.01696 12.06272-56.14592-5.1712-56.14592-38.47168v-9.0112z m0-37.2736v-752.2304a60.27264 60.27264 0 0 1 60.3136-60.29312H853.6064a60.3136 60.3136 0 0 1 60.3136 60.30336v752.2304l-57.4976-20.45952a787284.48 787284.48 0 0 1-139.8272-49.7152h-0.02048l-143.58528-51.06688a196.68992 196.68992 0 0 0-131.76832 0l-143.57504 51.06688h-0.02048l-139.83744 49.7152-57.4976 20.44928z m604.2624-576.58368c-50.05312-49.88928-131.19488-49.88928-181.25824 0a127.82592 127.82592 0 0 0-16.1792 19.72224 127.75424 127.75424 0 0 0-16.18944-19.72224c-50.0736-49.88928-131.21536-49.88928-181.27872 0-50.04288 49.8688-50.04288 130.73408 0 180.62336l197.45792 196.75136 197.43744-196.75136c50.0736-49.88928 50.0736-130.7648 0-180.6336z" p-id="28858" fill="#ffffff"></path></svg>